<svg xmlns="http://www.w3.org/2000/svg" width="203" height="193" viewBox="0 0 203 193" fill="none">
<path d="M120.723 71.622C120.496 75.8142 118.797 79.8931 115.964 83.0656C113.131 86.2381 109.279 88.2776 105.087 88.8441C100.895 89.4106 96.5892 88.6175 92.9635 86.4647C89.3378 84.3119 86.6185 80.9129 85.1455 76.9473C83.6726 72.9816 83.6726 68.5628 85.1455 64.5972C86.6185 60.6316 89.3378 57.2325 92.9635 55.0798C96.5892 52.927 100.895 52.0206 105.087 52.7004C109.279 53.3802 113.131 55.4197 115.964 58.4788C119.25 61.9912 120.949 66.75 120.723 71.622ZM104.407 33.3256C112.452 33.7788 120.156 36.9513 126.275 42.2765C132.393 47.6017 136.472 54.8532 137.945 62.7844C138.511 61.8779 139.191 60.8582 139.871 60.0651C143.27 55.7596 147.802 52.5871 152.901 50.7742C158.113 49.0747 163.665 48.8481 168.877 50.2077C164.458 34.4586 154.6 20.8622 141.004 11.6847C127.408 2.62041 111.092 -1.45849 94.7763 0.467662C78.4607 2.39381 63.5046 9.87182 52.2876 21.7686C41.0706 33.6655 34.499 49.188 33.7059 65.5036C33.4793 69.8092 35.0656 74.1147 38.0114 77.2872C40.9573 80.4597 45.0362 82.4991 49.3418 82.7257C53.6473 82.9523 57.9528 81.4794 61.2386 78.5335C64.5244 75.5876 66.4505 71.622 66.6771 67.2032C67.2437 57.6857 71.4359 48.7348 78.574 42.3898C85.5988 36.1581 94.8896 32.759 104.407 33.3256Z" fill="url(#paint0_linear_5047_15997)"/>
<path d="M62.0308 106.633C65.7698 104.707 70.1886 104.14 74.2675 105.047C78.4597 105.953 82.0854 108.333 84.6914 111.618C87.2974 114.904 88.657 119.096 88.5437 123.289C88.4304 127.481 86.8441 131.56 84.1249 134.845C81.4056 138.018 77.5533 140.171 73.3611 140.964C69.1689 141.644 64.8633 140.964 61.2376 138.924C57.6119 136.885 54.6661 133.486 53.1931 129.634C51.6069 125.668 51.4936 121.362 52.8532 117.283C53.6463 115.017 54.7794 112.865 56.3656 111.052C58.0652 109.239 59.9913 107.766 62.0308 106.633ZM37.2174 139.604C33.5917 132.353 32.4587 124.195 34.0449 116.264C35.6311 108.333 39.9367 101.194 46.055 95.9825C39.4834 95.8692 33.1385 93.3765 28.2664 89.071C24.1875 85.4453 21.2416 80.7999 19.7687 75.4746C8.32509 87.1448 1.4136 102.554 0.167268 118.87C-0.965763 135.185 3.67967 151.388 13.4237 164.531C23.1678 177.674 37.2174 186.965 53.0798 190.817C69.0556 194.556 85.7111 192.517 100.327 185.039C102.367 184.132 104.066 182.773 105.539 181.073C107.012 179.487 108.145 177.561 108.825 175.408C109.505 173.369 109.845 171.102 109.731 168.95C109.618 166.797 108.938 164.644 108.032 162.605C107.012 160.679 105.652 158.866 103.953 157.506C102.253 156.033 100.327 155.013 98.1745 154.334C96.0217 153.654 93.8689 153.427 91.7162 153.654C89.5634 153.88 87.4107 154.56 85.4845 155.58C76.9868 159.885 67.1294 160.565 58.0652 157.619C49.0009 154.56 41.5229 148.215 37.2174 139.604Z" fill="url(#paint1_linear_5047_15997)"/>
<path d="M121.743 137.678C118.23 135.298 115.624 131.786 114.378 127.707C113.132 123.628 113.358 119.323 115.058 115.357C116.644 111.391 119.59 108.219 123.442 106.293C127.181 104.367 131.487 103.687 135.679 104.593C139.871 105.386 143.61 107.652 146.216 110.938C148.935 114.224 150.295 118.303 150.295 122.608C150.295 126.801 148.822 130.993 146.103 134.165C143.383 137.451 139.644 139.604 135.452 140.51C133.073 140.964 130.694 140.964 128.314 140.51C125.935 139.944 123.669 139.037 121.743 137.678ZM162.985 143.57C158.453 150.254 151.768 155.24 144.063 157.732C136.359 160.225 128.088 159.998 120.496 157.166C121.063 158.186 121.516 159.205 121.856 160.225C123.782 165.324 124.235 170.876 123.102 176.201C121.969 181.526 119.25 186.398 115.398 190.25C131.147 194.556 147.916 193.083 162.758 186.171C177.601 179.26 189.385 167.25 196.183 152.407C202.981 137.564 204.227 120.682 199.808 105.046C195.39 89.2973 185.419 75.7009 171.823 66.6367C168.197 64.2573 163.778 63.4642 159.586 64.3706C155.394 65.277 151.655 67.7697 149.162 71.2821C146.783 74.9078 145.876 79.2133 146.556 83.5188C147.349 87.8244 149.728 91.5634 153.241 94.056C161.059 99.3813 166.497 107.652 168.31 117.057C170.236 126.008 168.31 135.638 162.985 143.57Z" fill="url(#paint2_linear_5047_15997)"/>
<defs>
<linearGradient id="paint0_linear_5047_15997" x1="-71.7549" y1="3.0521" x2="213.949" y2="75.3432" gradientUnits="userSpaceOnUse">
<stop stop-color="#FF008F"/>
<stop offset="1" stop-color="#BB2564"/>
</linearGradient>
<linearGradient id="paint1_linear_5047_15997" x1="98.7794" y1="307.515" x2="19.4288" y2="23.6998" gradientUnits="userSpaceOnUse">
<stop stop-color="#B832FF"/>
<stop offset="1" stop-color="#4498FF"/>
</linearGradient>
<linearGradient id="paint2_linear_5047_15997" x1="279.845" y1="8.05556" x2="70.4839" y2="215.98" gradientUnits="userSpaceOnUse">
<stop stop-color="#0098EE"/>
<stop offset="1" stop-color="#2D47FF"/>
</linearGradient>
</defs>
</svg>